<svg xmlns="http://www.w3.org/2000/svg" width="666.667" height="666.667" version="1.0" viewBox="-3 -3 506 506"><rect width="506" height="506" x="-3" y="-3" stroke-width="0" rx="0"/><g fill="#fff"><path d="M143.7 83.7c-.3.5-32.3 73.5-71.2 162.3C33.6 334.8 1.4 408.3.9 409.2c-.9 1.7.2 1.8 17.4 1.8h18.4l61.4-142c33.8-78.1 61.7-142 62-142 .3 0 28 63.9 61.5 142l60.9 142h34.3c36.9 0 45.1-.7 63.5-5.5 39.7-10.4 74.1-35.5 95.1-69.5 29.7-48 32.7-113.5 7.6-164.2-15.9-31.9-38.5-54.5-70.3-70.2-15.3-7.6-30.6-12.8-46.2-15.8-10.4-2-15.1-2.1-81.7-2.5l-70.8-.4 3 6.8c1.6 3.7 4.8 11.3 7.3 16.8l4.3 10 61.5.6c40.5.4 63.5 1 67.6 1.7 27.2 5.2 50 16.9 67.9 34.7 23.8 23.7 35.7 52.3 37.1 88.5 1.5 40-10.2 72.2-35.7 98.1-11.4 11.5-20 17.6-34.3 24.4-20.1 9.5-37.3 12.7-66.8 12.3l-20.1-.3L241.6 230 177.5 83.5l-16.7-.3c-9.1-.1-16.9.1-17.1.5z"/><path d="M239 139.7c0 .4 3.3 8.2 7.3 17.3l7.3 16.5 63.5.6c54.7.5 64.4.8 70.4 2.3 11.7 2.8 23.2 6.7 31.3 10.7 4.2 2 7.8 3.6 7.9 3.5.2-.1-2.2-3.9-5.3-8.4-13.8-20.2-35.7-34.3-62.9-40.5-8.3-1.8-13.2-2-64.2-2.4-30.4-.3-55.3-.1-55.3.4zM112.2 300.2c-17.9 40.9-47.5 108.5-47.9 109.5-.4 1 3.5 1.3 17.8 1.3h18.4l16.8-39.8 16.7-39.7-8.6-20c-4.7-11-8.7-20.1-8.8-20.3-.2-.1-2.2 3.9-4.4 9z"/></g></svg>