<svg xmlns="http://www.w3.org/2000/svg" width="18" height="18" fill="none"><path fill="#FFFCF3" d="M7.6 10.4 5.45 8.25a.948.948 0 0 0-.7-.275.948.948 0 0 0-.7.275.948.948 0 0 0-.275.7c0 .283.092.517.275.7L6.9 12.5c.2.2.433.3.7.3.267 0 .5-.1.7-.3l5.65-5.65a.948.948 0 0 0 .275-.7.948.948 0 0 0-.275-.7.948.948 0 0 0-.7-.275.948.948 0 0 0-.7.275L7.6 10.4ZM2 18c-.55 0-1.02-.196-1.413-.587A1.926 1.926 0 0 1 0 16V2C0 1.45.196.98.588.587A1.926 1.926 0 0 1 2 0h14c.55 0 1.02.196 1.413.588C17.803.979 18 1.45 18 2v14c0 .55-.196 1.02-.587 1.413A1.926 1.926 0 0 1 16 18H2Zm0-2h14V2H2v14Z"/></svg>