<svg xmlns="http://www.w3.org/2000/svg" width="26" height="26" fill="none"><path fill="#E61C40" d="M13.475.5C6.572.5.951 6.121.951 13.025c0 6.903 5.621 12.524 12.524 12.524C20.38 25.55 26 19.928 26 13.025 26 6.12 20.379.5 13.475.5Zm1.381 21.499c-.395.345-.838.542-1.38.542-.543 0-.987-.197-1.381-.542-.395-.345-.592-.838-.592-1.48 0-.542.197-.985.592-1.38a1.897 1.897 0 0 1 1.43-.592c.542 0 1.035.198 1.43.592.394.395.591.838.591 1.38-.098.642-.295 1.135-.69 1.48Zm.493-13.659-.592 6.51c-.049.788-.197 1.38-.394 1.774-.197.395-.543.641-.986.641-.493 0-.79-.197-.987-.591-.197-.395-.295-1.036-.394-1.825l-.444-6.312c-.098-1.232-.098-2.12-.098-2.662 0-.74.197-1.282.591-1.726.395-.395.888-.592 1.529-.592.74 0 1.282.247 1.529.79.246.542.394 1.281.394 2.267-.05.543-.05 1.135-.148 1.726Z"/></svg>