<svg xmlns="http://www.w3.org/2000/svg" version="1.0" width="500.000000pt" height="500.000000pt" viewBox="-3 -3 506 506" preserveAspectRatio="xMidYMid meet"><g id="deeditor_bgCarrier" stroke-width="0">
    <rect id="dee_c_e" x="-3" y="-3" width="506" height="506" rx="0" fill="#000000" strokewidth="0"/>
  </g>

<g transform="translate(0.000000,500.000000) scale(0.100000,-0.100000)" fill="#ffffff" stroke="none">
<path d="M1437 4163 c-3 -5 -323 -735 -712 -1623 -389 -888 -711 -1623 -716 -1632 -9 -17 2 -18 174 -18 l184 0 614 1420 c338 781 617 1420 620 1420 3 0 280 -639 615 -1420 l609 -1420 343 0 c369 0 451 7 635 55 397 104 741 355 951 695 297 480 327 1135 76 1642 -159 319 -385 545 -703 702 -153 76 -306 128 -462 158 -104 20 -151 21 -817 25 l-708 4 30 -68 c16 -37 48 -113 73 -168 l43 -100 615 -6 c405 -4 635 -10 676 -17 272 -52 500 -169 679 -347 238 -237 357 -523 371 -885 15 -400 -102 -722 -357 -981 -114 -115 -200 -176 -343 -244 -201 -95 -373 -127 -668 -123 l-201 3 -642 1465 -641 1465 -167 3 c-91 1 -169 -1 -171 -5z" fill="#ffffff"/>
<path d="M2390 3603 c0 -4 33 -82 73 -173 l73 -165 635 -6 c547 -5 644 -8 704 -23 117 -28 232 -67 313 -107 42 -20 78 -36 79 -35 2 1 -22 39 -53 84 -138 202 -357 343 -629 405 -83 18 -132 20 -642 24 -304 3 -553 1 -553 -4z" fill="#ffffff"/>
<path d="M1122 1998 c-179 -409 -475 -1085 -479 -1095 -4 -10 35 -13 178 -13 l184 0 168 398 167 397 -86 200 c-47 110 -87 201 -88 203 -2 1 -22 -39 -44 -90z" fill="#ffffff"/>
</g>
</svg>